<?xml version="1.0" encoding="UTF-8" standalone="no"?>
<!-- Created with Inkscape (http://www.inkscape.org/) -->

<svg
   xmlns:dc="http://purl.org/dc/elements/1.1/"
   xmlns:cc="http://creativecommons.org/ns#"
   xmlns:rdf="http://www.w3.org/1999/02/22-rdf-syntax-ns#"
   xmlns:svg="http://www.w3.org/2000/svg"
   xmlns="http://www.w3.org/2000/svg"
   xmlns:sodipodi="http://sodipodi.sourceforge.net/DTD/sodipodi-0.dtd"
   xmlns:inkscape="http://www.inkscape.org/namespaces/inkscape"
   width="469.4906"
   height="432.34393"
   id="svg2"
   sodipodi:version="0.32"
   inkscape:version="0.48.1 "
   sodipodi:docname="ladybug_26_black_white_line_art_coloring_book_colouring.svg"
   inkscape:output_extension="org.inkscape.output.svg.inkscape"
   version="1.1">
  <defs
     id="defs4">
    <inkscape:perspective
       sodipodi:type="inkscape:persp3d"
       inkscape:vp_x="0 : 526.18109 : 1"
       inkscape:vp_y="0 : 1000 : 0"
       inkscape:vp_z="744.09448 : 526.18109 : 1"
       inkscape:persp3d-origin="372.04724 : 350.78739 : 1"
       id="perspective10" />
    <inkscape:perspective
       id="perspective3164"
       inkscape:persp3d-origin="372.04724 : 350.78739 : 1"
       inkscape:vp_z="744.09448 : 526.18109 : 1"
       inkscape:vp_y="0 : 1000 : 0"
       inkscape:vp_x="0 : 526.18109 : 1"
       sodipodi:type="inkscape:persp3d" />
  </defs>
  <sodipodi:namedview
     id="base"
     pagecolor="#ffffff"
     bordercolor="#666666"
     borderopacity="1.0"
     gridtolerance="10000"
     guidetolerance="10"
     objecttolerance="10"
     inkscape:pageopacity="0.0"
     inkscape:pageshadow="2"
     inkscape:zoom="1.2609876"
     inkscape:cx="71.096785"
     inkscape:cy="235.17059"
     inkscape:document-units="px"
     inkscape:current-layer="capa1"
     showgrid="false"
     inkscape:window-width="971"
     inkscape:window-height="721"
     inkscape:window-x="565"
     inkscape:window-y="8"
     fit-margin-top="0"
     fit-margin-left="0"
     fit-margin-right="0"
     fit-margin-bottom="0"
     inkscape:window-maximized="1" />
  <metadata
     id="metadata7">
    <rdf:RDF>
      <cc:Work
         rdf:about="">
        <dc:format>image/svg+xml</dc:format>
        <dc:type
           rdf:resource="http://purl.org/dc/dcmitype/StillImage" />
        <dc:title />
      </cc:Work>
    </rdf:RDF>
  </metadata>
  <g
     inkscape:label="Capa 1"
     inkscape:groupmode="layer"
     id="capa1"
     transform="translate(-155.06152,-160.11149)">
    <path
       inkscape:connector-curvature="0"
       style="fill:none;stroke:#000000;stroke-width:12.99659729;stroke-linecap:round;stroke-linejoin:miter;stroke-miterlimit:4;stroke-opacity:1;stroke-dasharray:none"
       d="m 414.31478,526.56514 c 0,0 165.54714,-149.98916 203.73904,-23.96082"
       id="path3195" />
    <path
       inkscape:connector-curvature="0"
       style="fill:none;stroke:#000000;stroke-width:12.99659729;stroke-linecap:round;stroke-linejoin:miter;stroke-miterlimit:4;stroke-opacity:1;stroke-dasharray:none"
       d="m 398.71264,457.91564 c 0,0 165.54714,-149.98916 203.73904,-23.96082"
       id="path3193" />
    <path
       inkscape:connector-curvature="0"
       style="fill:none;stroke:#000000;stroke-width:12.99659729;stroke-linecap:round;stroke-linejoin:miter;stroke-miterlimit:4;stroke-opacity:1;stroke-dasharray:none"
       d="m 398.71263,398.62745 c 0,0 165.54713,-149.98917 203.73904,-23.96082"
       id="path3191" />
    <path
       inkscape:connector-curvature="0"
       id="rect6104-6"
       d="m 398.00723,392.22488 c 0,44.5856 2.37909,129.61569 0,173.40826 -0.3889,31.45492 55.74597,15.4787 88.34981,-29.17257 34.81244,-26.27324 43.7982,-143.83297 27.4433,-143.44266 -37.01164,-7.13726 -84.33267,-7.13726 -115.79311,-0.79303 z"
       style="fill:#ffffff;fill-opacity:1;stroke:none"
       sodipodi:nodetypes="ccccc" />
    <path
       inkscape:connector-curvature="0"
       style="fill:none;stroke:#000000;stroke-width:12.99659729;stroke-linecap:round;stroke-linejoin:miter;stroke-miterlimit:4;stroke-opacity:1;stroke-dasharray:none"
       d="m 365.29886,517.20385 c 0,0 -165.54713,-149.98917 -203.73904,-23.96083"
       id="path3189" />
    <path
       inkscape:connector-curvature="0"
       style="fill:none;stroke:#000000;stroke-width:12.99659729;stroke-linecap:round;stroke-linejoin:miter;stroke-miterlimit:4;stroke-opacity:1;stroke-dasharray:none"
       d="m 368.41928,454.79522 c 0,0 -165.54714,-149.98916 -203.73904,-23.96082"
       id="path3187" />
    <path
       inkscape:connector-curvature="0"
       id="rect6104-8"
       d="m 265.12118,393.74866 c -21.70748,43.96343 2.89347,128.38218 37.65186,155.3669 27.22858,24.80146 28.54098,31.34138 61.66164,33.42439 44.86841,-36.45099 30.97204,-37.85643 28.81551,-91.14823 0,-32.54768 0,-65.09535 0,-97.64302 -45.08876,-7.93032 -83.83329,-8.72328 -128.12901,-4e-5 z"
       style="fill:#ffffff;fill-opacity:1;stroke:none"
       sodipodi:nodetypes="cccccc" />
    <path
       inkscape:connector-curvature="0"
       style="fill:#000000;fill-opacity:1;stroke:#000000;stroke-width:0.6006124;stroke-linejoin:round;stroke-miterlimit:4;stroke-opacity:1;stroke-dasharray:none"
       d="m 385.80259,212.07111 c -45.65756,0 -82.73044,27.59379 -82.73044,61.58989 0,8.65295 2.42563,16.86661 6.75768,24.34032 l 80.77285,42.01178 72.74264,-44.93525 c 3.33211,-6.67605 5.15359,-13.88045 5.15359,-21.41685 0,-33.9961 -37.03877,-61.5899 -82.69632,-61.58989 z"
       id="path3173"
       sodipodi:nodetypes="cscccsc" />
    <path
       inkscape:connector-curvature="0"
       style="fill:none;stroke:#000000;stroke-width:13.92880154;stroke-linecap:round;stroke-linejoin:miter;stroke-miterlimit:4;stroke-opacity:1;stroke-dasharray:none"
       d="m 366.92546,280.46596 c 0,0 -44.69101,-149.07323 -135.94621,-96.9894"
       id="path3197" />
    <path
       inkscape:connector-curvature="0"
       style="fill:none;stroke:#000000;stroke-width:13.92880154;stroke-linecap:round;stroke-linejoin:miter;stroke-miterlimit:4;stroke-opacity:1;stroke-dasharray:none"
       d="m 403.6305,275.1077 c 0,0 44.69105,-149.07325 135.94625,-96.98942"
       id="path3199" />
    <path
       inkscape:connector-curvature="0"
       style="fill:none;stroke:#000000;stroke-width:12.99659729;stroke-linecap:round;stroke-linejoin:miter;stroke-miterlimit:4;stroke-opacity:1;stroke-dasharray:none"
       d="m 375.21566,386.56579 c 0,0 -165.54714,-149.98916 -203.73904,-23.96082"
       id="path3185" />
    <path
       inkscape:connector-curvature="0"
       style="fill:#ffffff;fill-opacity:1;stroke:#000000"
       d="m 525.07656,405.20175 c 1.21771,12.11386 1.66878,30.55698 -77.80637,5.18005 -17.07971,-5.45367 -44.47944,6.30219 -50.9607,7.82223 -15.05144,3.52998 -20.66939,-67.78418 -20.66939,-80.56854 0,-25.5687 -36.491,-46.64484 -0.63244,-46.64484 17.92927,0 62.74497,2.83363 94.18913,26.19531 31.44415,23.36168 54.66207,75.90194 55.87977,88.01579 z"
       id="path3252"
       sodipodi:nodetypes="zsssssz" />
    <path
       inkscape:connector-curvature="0"
       style="fill:#ffffff;fill-opacity:1;stroke:#000000"
       d="m 390.58348,418.91329 c 0.39943,9.07931 -31.10437,9.29431 -55.13694,10.35811 -35.99562,1.59332 -82.77121,17.40508 -83.17064,15.24043 -3.76819,-20.42098 20.23032,-98.46855 65.5566,-128.11448 31.43819,-20.56234 56.54675,-30.04431 57.13868,-20.33504 0.8699,14.2688 3.49902,34.29774 3.92391,42.16508 0.36767,6.80795 8.49295,59.12553 11.68839,80.6859 z"
       id="path3246"
       sodipodi:nodetypes="csssssc" />
    <path
       sodipodi:type="arc"
       style="fill:#ffffff;fill-opacity:1;stroke:#000000"
       id="path3201"
       sodipodi:cx="327.14285"
       sodipodi:cy="373.79074"
       sodipodi:rx="27.142857"
       sodipodi:ry="21.428572"
       d="m 354.28571,373.79074 c 0,11.83467 -12.15227,21.42857 -27.14286,21.42857 -14.99058,0 -27.14285,-9.5939 -27.14285,-21.42857 0,-11.83467 12.15227,-21.42857 27.14285,-21.42857 14.99059,0 27.14286,9.5939 27.14286,21.42857 z"
       transform="matrix(0.87981006,0.22324672,-0.46536842,1.1465451,229.09845,-153.93485)"
       inkscape:transform-center-x="16.409697" />
    <path
       sodipodi:type="arc"
       style="fill:#ffffff;fill-opacity:1;stroke:#000000"
       id="path3205"
       sodipodi:cx="327.14285"
       sodipodi:cy="373.79074"
       sodipodi:rx="27.142857"
       sodipodi:ry="21.428572"
       d="m 354.28571,373.79074 c 0,11.83467 -12.15227,21.42857 -27.14286,21.42857 -14.99058,0 -27.14285,-9.5939 -27.14285,-21.42857 0,-11.83467 12.15227,-21.42857 27.14285,-21.42857 14.99059,0 27.14286,9.5939 27.14286,21.42857 z"
       transform="matrix(0.89131391,-0.10241971,0.21567134,1.13764,61.676787,-43.481859)" />
    <path
       inkscape:connector-curvature="0"
       style="fill:none;stroke:#000000;stroke-width:11.79523182;stroke-linecap:round;stroke-linejoin:miter;stroke-miterlimit:4;stroke-opacity:1;stroke-dasharray:none"
       d="m 375.24277,296.2566 c 46.80648,277.71842 12.48173,271.47756 12.48173,271.47756"
       id="path3209" />
    <path
       sodipodi:type="arc"
       style="fill:#000001;fill-opacity:1;stroke:none"
       id="path3228"
       sodipodi:cx="327.14285"
       sodipodi:cy="373.79074"
       sodipodi:rx="27.142857"
       sodipodi:ry="21.428572"
       d="m 354.28571,373.79074 c 0,11.83467 -12.15227,21.42857 -27.14286,21.42857 -14.99058,0 -27.14285,-9.5939 -27.14285,-21.42857 0,-11.83467 12.15227,-21.42857 27.14285,-21.42857 14.99059,0 27.14286,9.5939 27.14286,21.42857 z"
       transform="matrix(0.92573556,0,0,1.265738,41.624251,-49.276102)" />
    <path
       sodipodi:type="arc"
       style="fill:#000000;fill-opacity:1;stroke:none"
       id="path3230"
       sodipodi:cx="327.14285"
       sodipodi:cy="373.79074"
       sodipodi:rx="27.142857"
       sodipodi:ry="21.428572"
       d="m 354.28571,373.79074 c 0,11.83467 -12.15227,21.42857 -27.14286,21.42857 -14.99058,0 -27.14285,-9.5939 -27.14285,-21.42857 0,-11.83467 12.15227,-21.42857 27.14285,-21.42857 14.99059,0 27.14286,9.5939 27.14286,21.42857 z"
       transform="matrix(0.92573556,0,0,1.3263655,-5.1402252,-16.257274)" />
    <path
       sodipodi:type="arc"
       style="fill:#000000;fill-opacity:1;stroke:none"
       id="path3232"
       sodipodi:cx="327.14285"
       sodipodi:cy="373.79074"
       sodipodi:rx="27.142857"
       sodipodi:ry="21.428572"
       d="m 354.28571,373.79074 c 0,11.83467 -12.15227,21.42857 -27.14286,21.42857 -14.99058,0 -27.14285,-9.5939 -27.14285,-21.42857 0,-11.83467 12.15227,-21.42857 27.14285,-21.42857 14.99059,0 27.14286,9.5939 27.14286,21.42857 z"
       transform="matrix(0.84596244,0,0,1.1242737,74.648609,110.5933)" />
    <path
       sodipodi:type="arc"
       style="fill:#000000;fill-opacity:1;stroke:none"
       id="path3234"
       sodipodi:cx="327.14285"
       sodipodi:cy="373.79074"
       sodipodi:rx="27.142857"
       sodipodi:ry="21.428572"
       d="m 354.28571,373.79074 c 0,11.83467 -12.15227,21.42857 -27.14286,21.42857 -14.99058,0 -27.14285,-9.5939 -27.14285,-21.42857 0,-11.83467 12.15227,-21.42857 27.14285,-21.42857 14.99059,0 27.14286,9.5939 27.14286,21.42857 z"
       transform="matrix(0.92573556,0,0,1.3263655,131.5511,30.822636)" />
    <path
       sodipodi:type="arc"
       style="fill:#000000;fill-opacity:1;stroke:none"
       id="path3236"
       sodipodi:cx="327.14285"
       sodipodi:cy="373.79074"
       sodipodi:rx="27.142857"
       sodipodi:ry="21.428572"
       d="m 354.28571,373.79074 c 0,11.83467 -12.15227,21.42857 -27.14286,21.42857 -14.99058,0 -27.14285,-9.5939 -27.14285,-21.42857 0,-11.83467 12.15227,-21.42857 27.14285,-21.42857 14.99059,0 27.14286,9.5939 27.14286,21.42857 z"
       transform="matrix(0.92573556,0,0,1.3263655,179.14159,-23.381278)" />
    <path
       sodipodi:type="arc"
       style="fill:#000000;fill-opacity:1;stroke:none"
       id="path3238"
       sodipodi:cx="327.14285"
       sodipodi:cy="373.79074"
       sodipodi:rx="27.142857"
       sodipodi:ry="21.428572"
       d="m 354.28571,373.79074 c 0,11.83467 -12.15227,21.42857 -27.14286,21.42857 -14.99058,0 -27.14285,-9.5939 -27.14285,-21.42857 0,-11.83467 12.15227,-21.42857 27.14285,-21.42857 14.99059,0 27.14286,9.5939 27.14286,21.42857 z"
       transform="matrix(0.90978098,0,0,1.2253196,136.06215,-33.399556)" />
    <path
       inkscape:connector-curvature="0"
       style="fill:none;stroke:#000000;stroke-width:10.88110161;stroke-linecap:round;stroke-linejoin:round;stroke-miterlimit:4;stroke-opacity:1;stroke-dasharray:none"
       d="m 389.80682,289.65573 c -74.93899,0 -135.75415,67.05487 -135.75415,149.67076 0,72.91554 47.37099,133.69721 110.0165,146.96751 l 26.11313,-20.57485 21.67561,21.29572 c 64.46099,-11.62664 113.70308,-73.3516 113.70306,-147.68838 0,-82.61589 -60.81515,-149.67076 -135.75415,-149.67076 z"
       id="path2385" />
  </g>
</svg>
